<svg width="967" height="628" viewBox="0 0 967 628" fill="none" xmlns="http://www.w3.org/2000/svg">
<rect width="966.154" height="628" fill="white"/>
<path d="M72.7643 138.618C53.5585 138.618 39.8554 124.484 39.8554 104.954C39.8554 78.0876 58.7376 57.9107 83.662 57.9107C102.76 57.9107 115.492 71.1822 115.6 91.3591H99.9547C99.5231 79.2745 92.8334 71.9374 82.0436 71.9374C67.1536 71.9374 56.148 85.8563 56.148 104.523C56.148 116.499 63.4851 124.592 74.4907 124.592C85.1726 124.592 93.3729 117.686 97.5809 105.278H113.118C107.508 126.318 92.5097 138.618 72.7643 138.618ZM143.325 138.079C128.758 138.079 118.616 128.152 118.616 113.91C118.616 94.2724 133.182 78.3034 151.417 78.3034C165.875 78.3034 176.018 88.1222 176.018 102.365C176.018 122.11 161.344 138.079 143.325 138.079ZM144.835 125.131C153.899 125.131 161.02 115.636 161.02 103.767C161.02 96.1066 156.596 91.2512 149.799 91.2512C140.735 91.2512 133.614 100.854 133.614 112.723C133.614 120.384 138.038 125.131 144.835 125.131ZM194.59 137H180.239L190.382 79.3824H203.545L202.143 87.6906C206.782 81.4325 212.609 78.3034 219.083 78.3034C227.391 78.3034 232.678 82.6194 234.404 89.7406C239.152 82.1878 245.841 78.3034 253.286 78.3034C265.155 78.3034 271.737 87.7985 269.255 101.502L263.105 137H248.647L254.365 104.738C255.876 96.3224 253.178 91.2512 247.136 91.2512C240.662 91.2512 236.023 96.2145 234.404 105.386L228.901 137H214.443L220.162 104.738C221.672 96.3224 218.867 91.2512 212.824 91.2512C205.919 91.2512 201.711 96.754 200.2 105.494L194.59 137ZM302.455 138.079C288.32 138.079 276.991 128.8 276.991 113.155C276.991 93.0855 290.37 78.3034 308.066 78.3034C325.761 78.3034 334.069 93.0855 330.94 111.86H291.989V112.291C291.989 120.923 296.197 125.779 303.642 125.779C309.145 125.779 312.813 122.973 314.971 117.363H329.645C325.006 131.821 314.971 138.079 302.455 138.079ZM307.958 89.6327C300.297 89.6327 295.442 95.1355 293.284 102.581H317.776C318.208 95.2434 314.755 89.6327 307.958 89.6327ZM382.932 138.079C369.013 138.079 358.547 127.721 358.547 113.37C358.547 93.3013 371.818 78.3034 389.837 78.3034C404.08 78.3034 413.467 88.2301 413.575 103.767H398.685C398.577 95.8908 394.801 91.2512 388.758 91.2512C379.803 91.2512 373.545 100.207 373.545 112.399C373.545 120.168 377.753 125.239 384.334 125.239C390.377 125.239 395.34 121.139 397.93 112.507H412.388C409.259 127.937 398.037 138.079 382.932 138.079ZM437.597 105.494L431.987 137H417.636L431.231 59.5292H444.395L439.539 87.6906C443.963 81.7562 450.006 78.3034 456.911 78.3034C468.78 78.3034 475.362 87.7985 472.988 101.502L466.73 137H452.379L458.098 104.738C459.501 96.2145 456.803 91.2512 450.329 91.2512C443.424 91.2512 439.108 96.754 437.597 105.494ZM506.239 138.079C492.104 138.079 480.775 128.8 480.775 113.155C480.775 93.0855 494.154 78.3034 511.85 78.3034C529.545 78.3034 537.853 93.0855 534.724 111.86H495.773V112.291C495.773 120.923 499.981 125.779 507.426 125.779C512.929 125.779 516.597 122.973 518.755 117.363H533.429C528.79 131.821 518.755 138.079 506.239 138.079ZM511.742 89.6327C504.081 89.6327 499.226 95.1355 497.068 102.581H521.561C521.992 95.2434 518.539 89.6327 511.742 89.6327ZM564.167 138.079C550.248 138.079 539.782 127.721 539.782 113.37C539.782 93.3013 553.053 78.3034 571.072 78.3034C585.315 78.3034 594.702 88.2301 594.81 103.767H579.92C579.812 95.8908 576.036 91.2512 569.993 91.2512C561.038 91.2512 554.78 100.207 554.78 112.399C554.78 120.168 558.988 125.239 565.569 125.239C571.612 125.239 576.575 121.139 579.165 112.507H593.623C590.494 127.937 579.273 138.079 564.167 138.079ZM613.222 137H598.871L612.574 59.5292H626.925L619.048 103.983L643.325 79.3824H660.373L632.104 107.868L651.202 137H634.585L617.861 110.241L613.222 137ZM680.708 138.079C666.141 138.079 655.999 128.152 655.999 113.91C655.999 94.2724 670.565 78.3034 688.8 78.3034C703.258 78.3034 713.401 88.1222 713.401 102.365C713.401 122.11 698.727 138.079 680.708 138.079ZM682.218 125.131C691.282 125.131 698.403 115.636 698.403 103.767C698.403 96.1066 693.979 91.2512 687.182 91.2512C678.118 91.2512 670.997 100.854 670.997 112.723C670.997 120.384 675.421 125.131 682.218 125.131ZM755.171 111.752L760.997 79.3824H775.348L765.205 137H752.042L753.552 128.584C748.697 134.95 743.194 138.079 736.828 138.079C725.067 138.079 718.486 128.692 720.967 114.881L727.117 79.3824H741.468L735.857 111.644C734.347 120.168 737.476 125.023 743.41 125.023C749.884 125.023 753.66 119.844 755.171 111.752ZM815.419 122.757L813.261 135.921C809.917 137.432 806.14 138.079 802.472 138.079C790.387 138.079 784.345 129.447 786.826 115.96L791.034 91.8986H779.813L782.079 79.3824H793.3L796.213 62.3345H810.564L807.651 79.3824H823.62L821.354 91.8986H805.385L801.177 115.96C800.206 121.678 802.364 124.592 807.543 124.592C810.24 124.592 813.369 123.944 815.419 122.757ZM51.0768 283H36.7264L46.8688 225.382H60.0324L58.6297 233.691C63.2693 227.432 69.0958 224.303 75.5697 224.303C83.8778 224.303 89.1648 228.619 90.8912 235.741C95.6387 228.188 102.328 224.303 109.773 224.303C121.642 224.303 128.224 233.798 125.742 247.502L119.592 283H105.134L110.852 250.738C112.363 242.322 109.665 237.251 103.623 237.251C97.1493 237.251 92.5097 242.215 90.8912 251.386L85.3884 283H70.9301L76.6487 250.738C78.1592 242.322 75.3539 237.251 69.3116 237.251C62.4061 237.251 58.1981 242.754 56.6875 251.494L51.0768 283ZM189.959 225.382L148.526 303.824H132.881L144.966 282.353L133.637 225.382H148.095L155 265.305L174.53 225.382H189.959ZM257.261 264.981C257.261 275.879 248.305 284.079 232.336 284.079C217.878 284.079 207.736 276.095 207.628 263.255H221.439C221.654 269.189 225.97 273.397 233.2 273.397C238.702 273.397 243.126 271.131 243.126 266.707C243.126 262.931 240.86 261.636 236.544 260.665L226.834 258.399C218.957 256.673 213.346 252.465 213.346 242.862C213.346 231.209 224.028 224.303 237.731 224.303C251.65 224.303 260.39 232.072 260.498 244.372H246.795C246.579 238.546 242.802 234.985 236.976 234.985C231.365 234.985 227.265 237.359 227.265 241.675C227.265 245.344 229.963 246.962 233.739 247.825L242.155 249.767C250.895 251.817 257.261 255.702 257.261 264.981ZM299.848 268.757L297.69 281.921C294.345 283.432 290.568 284.079 286.9 284.079C274.815 284.079 268.773 275.447 271.255 261.96L275.463 237.899H264.241L266.507 225.382H277.729L280.642 208.335H294.992L292.079 225.382H308.048L305.782 237.899H289.813L285.605 261.96C284.634 267.678 286.792 270.592 291.971 270.592C294.669 270.592 297.798 269.944 299.848 268.757ZM344.758 257.752L350.584 225.382H364.935L354.792 283H341.629L343.139 274.584C338.284 280.95 332.781 284.079 326.415 284.079C314.654 284.079 308.072 274.692 310.554 260.881L316.704 225.382H331.055L325.444 257.644C323.933 266.168 327.062 271.023 332.997 271.023C339.471 271.023 343.247 265.844 344.758 257.752ZM387.527 283H373.284L381.161 237.899H369.939L372.205 225.382H383.427L383.966 222.145C386.124 210.924 392.058 204.342 404.467 204.342C407.704 204.342 411.048 204.99 413.206 206.069L411.156 217.614C409.969 217.074 407.596 216.643 405.654 216.643C401.446 216.643 398.856 218.585 398.209 222.577L397.777 225.382H412.343L410.185 237.899H395.511L387.527 283ZM431.571 283H417.328L425.205 237.899H413.984L416.249 225.382H427.471L428.01 222.145C430.168 210.924 436.103 204.342 448.511 204.342C451.748 204.342 455.093 204.99 457.251 206.069L455.201 217.614C454.014 217.074 451.64 216.643 449.698 216.643C445.49 216.643 442.9 218.585 442.253 222.577L441.821 225.382H456.388L454.23 237.899H439.555L431.571 283ZM471.684 259.91H460.786L466.828 205.529H485.063L471.684 259.91ZM474.058 272.102C474.058 278.145 468.663 283.539 462.297 283.539C457.118 283.539 453.773 280.303 453.773 275.663C453.773 269.405 459.276 264.118 465.642 264.118C470.821 264.118 474.058 267.463 474.058 272.102Z" fill="black"/>
<path d="M849.319 454.923C856.324 447.85 863.085 451.926 865.627 454.883C865.65 454.91 865.673 454.933 865.7 454.957C870.072 458.763 876.758 464.838 884.51 472.286L884.523 472.744C884.537 473.243 884.045 473.601 883.575 473.434L859.995 465.06C859.327 464.823 858.762 465.603 859.194 466.164L874.466 485.977C874.771 486.373 874.583 486.951 874.104 487.092L850.105 494.172C849.425 494.372 849.425 495.335 850.105 495.535L874.111 502.592C874.591 502.733 874.779 503.311 874.474 503.707L859.221 523.535C858.789 524.096 859.355 524.875 860.023 524.637L883.595 516.242C884.065 516.074 884.557 516.431 884.544 516.93L883.864 541.934C883.844 542.642 884.76 542.939 885.16 542.355L899.293 521.712C899.576 521.3 900.183 521.3 900.466 521.712L914.619 542.34C915.02 542.925 915.935 542.627 915.915 541.918L915.211 516.915C915.197 516.416 915.688 516.059 916.159 516.226L927.419 520.224C928.865 520.738 930.139 521.684 930.95 522.987C944.773 545.215 919.857 555.398 904.196 557.871C903.883 557.92 903.646 558.167 903.604 558.481L903.029 562.793C902.99 563.086 903.136 563.373 903.397 563.513L911.641 567.952C911.96 568.124 912.353 568.03 912.57 567.74C915.223 564.191 922.069 557.631 931.343 555.891C931.589 555.845 931.833 555.925 931.991 556.119C940.438 566.482 948.91 602.511 919.662 604.136C913.461 604.48 898.372 598.276 891.503 588.051C891.209 587.613 890.541 587.625 890.249 588.065C877.467 607.331 865.454 596.367 860.322 587.322C860.028 586.803 859.246 586.838 858.982 587.373C850.23 605.099 838.097 596.547 832.484 589.272C832.192 588.894 831.617 588.89 831.32 589.263C823.235 599.42 814.418 601.764 810.95 601.649C795.508 601.059 769.201 591.154 786.898 556.305C787.04 556.025 787.362 555.859 787.67 555.923C798.728 558.206 804.825 565.131 806.784 568.805C806.943 569.103 807.278 569.264 807.604 569.18C812.808 567.833 816.955 565.279 818.422 563.972C818.641 563.778 818.681 563.463 818.551 563.202L816.096 558.294C815.989 558.08 815.789 557.935 815.552 557.905C803.49 556.385 780.855 549.397 783.95 533.082C785.015 523.845 825.516 478.371 849.319 454.923Z" fill="black"/>
</svg>
