<svg width="128" height="128" viewBox="0 0 128 128" fill="none" xmlns="http://www.w3.org/2000/svg">
<rect width="128" height="128" rx="42.6667" fill="#FBFBFB"/>
<path d="M63.1376 27.4027C64.2956 27.8584 65.3731 28.3868 66.3015 29.1873C66.6326 29.4728 66.9673 29.7501 67.2017 30.1232C67.4285 30.4842 67.7559 30.5856 68.1446 30.4882C69.1243 30.2425 70.1281 30.1839 71.1253 30.0645C71.8899 29.973 72.6505 29.813 73.4217 29.8472C74.3852 29.8899 75.3478 29.953 76.3103 30.0421C77.2363 30.1278 78.1425 30.2692 79.0332 30.5025C80.2183 30.8129 81.3469 31.2719 82.2529 32.1333C82.9663 32.8116 83.7993 33.3374 84.5266 33.9997C86.3657 35.6748 87.9263 37.5393 88.9401 39.8458C89.5593 41.2547 89.901 42.7327 90.2777 44.2082C90.6415 45.6335 90.8888 47.0791 91.0748 48.5367C91.1939 49.4701 91.181 50.4109 91.2371 51.3477C91.306 52.498 91.1899 53.6448 91.2085 54.7932C91.2283 56.017 90.9884 57.2202 90.9341 58.4349C90.8864 59.5037 90.5908 60.5275 90.4909 61.5837C90.461 61.8998 90.3679 62.2117 90.3239 62.5308C90.2626 62.9759 90.0402 63.2929 89.5367 63.2903C89.1183 63.2882 88.6995 63.5808 88.2782 63.2746C88.175 63.1996 88.0543 63.2696 88.0016 63.3859C87.9169 63.573 87.8061 63.7586 87.8721 63.977C88.0267 64.0762 88.1775 64.0312 88.3279 64.0025C89.6802 63.7448 91.5352 64.6455 92.1002 65.8909C92.3494 66.4401 92.3197 67.0691 92.3606 67.6656C92.4191 68.5184 92.3877 69.3746 92.4352 70.2303C92.4917 71.2457 92.2756 72.2297 91.8993 73.1817C91.296 74.7084 90.4186 76.0629 89.4346 77.3681C89.0497 77.8785 88.6905 78.4139 88.2852 78.9099C87.3963 79.9978 86.2785 80.7695 84.941 81.2072C84.6576 81.2999 84.3871 81.4035 84.1524 81.5875C84.0387 81.6766 83.9114 81.7319 83.7726 81.7593C83.1602 81.8798 82.705 82.2412 82.449 82.7823C81.8233 84.1053 80.8853 85.2026 79.9494 86.295C79.2668 87.0918 78.6214 87.9208 77.8764 88.6686C77.1928 89.3547 76.4869 90.0156 75.743 90.6278C75.2705 91.0166 75.017 91.5904 74.4981 91.9258C73.6885 92.4491 72.9906 93.1331 72.1086 93.557C71.7581 93.7254 71.4491 93.9796 71.1182 94.1901C70.9529 94.2952 70.7923 94.4258 70.6102 94.483C69.5085 94.8285 68.4491 95.2928 67.2803 95.4472C66.5241 95.5471 65.775 95.5739 65.0198 95.594C64.6397 95.6041 64.2706 95.6885 63.8973 95.7503C63.2586 95.856 62.6155 95.7402 61.9738 95.7464C61.4708 95.7513 60.9684 95.7437 60.4687 95.8071C60.1416 95.8487 59.8402 95.7551 59.5229 95.6966C57.9104 95.3992 56.5396 94.589 55.2025 93.7129C54.3365 93.1455 53.4314 92.6261 52.6605 91.9256C51.9667 91.2952 51.3044 90.6304 50.6168 89.9931C49.5574 89.0112 48.7148 87.8204 47.5877 86.9009C46.8521 86.3009 46.3322 85.5089 45.8501 84.699C45.635 84.3377 45.4491 83.9591 45.2355 83.5969C44.7159 82.7158 43.8789 82.4631 42.9239 82.4282C42.5698 82.4152 42.2414 82.2516 41.8906 82.1873C41.3168 82.0821 40.7312 82.023 40.197 81.7279C39.3136 81.2399 38.6059 80.5547 38.1085 79.7088C37.3351 78.3938 36.6469 77.0276 35.9513 75.6683C35.498 74.7826 35.1432 73.848 34.7653 72.9297C34.3869 72.0101 34.169 70.9913 34.3319 70.0086C34.5927 68.4355 35.2295 67.04 36.8381 66.3533C37.1211 66.2326 37.3725 66.0417 37.6819 65.9792C38.0097 65.913 38.3142 65.9787 38.6184 66.1071C38.757 66.1656 38.927 66.1901 39.0494 66.051C39.1211 65.9694 39.1196 65.8653 39.0512 65.7792C38.9315 65.6283 38.781 65.6822 38.6273 65.7189C38.3683 65.7808 37.6876 65.4141 37.5114 65.1342C37.2635 64.7403 36.9461 64.4146 36.5542 64.1598C36.4626 64.1003 36.3745 64.0212 36.3133 63.9316C35.9417 63.3879 35.5431 62.8586 35.2198 62.287C34.5486 61.1005 34.0198 59.8414 33.7844 58.4982C33.587 57.3717 33.5023 56.2298 33.6765 55.0718C33.7879 54.3317 33.6858 53.5617 33.7592 52.8129C33.8099 52.2971 33.9391 51.7754 34.0913 51.2808C34.4576 50.0901 34.8443 48.8996 35.324 47.7513C36.2336 45.5747 37.3323 43.4998 38.7444 41.591C39.8189 40.1386 40.8096 38.6242 42.029 37.283C42.9358 36.2855 43.9331 35.3834 44.9609 34.5136C44.9823 34.4955 45.0025 34.4751 45.0263 34.4607C46.7482 33.4116 48.2609 32.0439 50.0783 31.1412C50.4267 30.9682 50.7883 30.8215 51.1543 30.658C50.0883 29.7516 50.7425 28.4498 51.8025 27.9797C53.2357 27.344 54.7495 27.0158 56.3059 26.8451C57.9998 26.6593 59.6904 26.6269 61.3754 26.8901C61.9678 26.9826 62.549 27.1583 63.1376 27.4027ZM75.9626 89.1467C76.8729 88.2949 77.7143 87.3818 78.5245 86.4319C79.7425 85.0039 80.9899 83.6069 81.765 81.8664C82.4013 80.4376 82.4748 78.9148 82.5277 77.39C82.5539 76.6339 82.5481 75.8779 82.7146 75.1334C82.7726 74.8742 82.9281 74.7785 83.1719 74.8231C83.4147 74.8675 83.6317 75.0168 83.5907 75.2682C83.4771 75.9646 83.4951 76.6633 83.4822 77.3621C83.4717 77.9366 83.4538 78.5116 83.4694 79.0855C83.4805 79.4976 84.1068 80.1956 84.5126 80.2952C84.6254 80.3228 84.7353 80.3012 84.8415 80.2567C86.0334 79.757 87.0025 78.958 87.7907 77.9546C88.4308 77.1399 89.013 76.2788 89.6029 75.4259C90.5296 74.0861 91.2428 72.6445 91.4102 71.0038C91.5411 69.7215 91.4421 68.4323 91.3055 67.1526C91.2795 66.9089 91.391 66.6484 91.2264 66.4159C90.8099 65.8274 90.4122 65.2186 89.5546 65.2738C89.459 65.28 89.3598 65.2508 89.264 65.2302C88.5463 65.0756 87.8799 65.2739 87.2943 65.6427C86.8758 65.9063 86.6902 66.4276 86.4226 66.8367C86.049 67.4079 85.9535 68.117 85.7828 68.7807C85.7457 68.9248 85.6472 69.1005 85.7988 69.2107C85.9558 69.3247 86.1116 69.2099 86.2613 69.122C86.8494 68.7768 87.4132 68.3935 88.1221 68.2947C88.5456 68.2356 88.8813 68.3467 89.143 68.6377C89.3795 68.9006 89.2857 69.2211 89.1409 69.5061C88.8341 70.11 88.3966 70.613 87.8762 71.0927C88.0932 71.4326 88.4132 71.7299 88.4201 72.1868C88.4391 73.447 88.0214 74.582 87.4128 75.6526C87.2272 75.979 86.8999 76.1638 86.4818 76.0536C85.4559 75.783 85.3263 75.5147 85.7503 74.5239C85.7834 74.4465 85.8077 74.3641 85.8497 74.292C86.238 73.6258 85.9232 73.0459 85.6139 72.4755C85.5152 72.2934 85.3565 72.2173 85.1915 72.4548C85.0404 72.6722 84.8554 72.8625 84.7155 73.093C84.4904 73.464 84.1919 73.7772 83.7095 73.7341C83.305 73.698 82.5815 73.0231 82.4918 72.6638C82.2632 71.7485 82.3782 70.8311 82.4509 69.9114C82.4758 69.5969 82.5916 69.2637 82.3504 68.8646C82.1857 69.5293 82.0389 70.1036 81.9022 70.6802C81.8143 71.0511 81.7623 71.4354 81.3137 71.5705C81.1736 71.6127 81.1625 71.7626 81.127 71.8813C80.9232 72.5643 80.7191 73.2472 80.5223 73.9321C80.4776 74.0879 80.4169 74.2194 80.2664 74.297C79.7474 74.5647 79.4328 75.0366 79.127 75.4989C78.6735 76.1845 78.0264 76.5994 77.2961 76.9065C76.8396 77.0984 76.3076 77.0132 75.8614 77.1947C74.9967 77.5465 74.1463 77.6411 73.2462 77.3715C72.7822 77.2325 72.3045 77.1123 71.8247 77.062C71.4985 77.0277 71.1823 77.0011 70.8954 76.8438C70.0881 76.4013 69.2309 76.0438 68.5313 75.4185C67.81 74.7738 67.0801 74.1578 66.6732 73.228C66.2555 72.2737 66.0227 71.2613 65.6491 70.294C65.4837 69.8659 65.4087 69.4662 64.8305 69.5215C64.7698 69.5273 64.7054 69.4595 64.6385 69.4413C64.2791 69.3437 63.9398 69.2387 63.5377 69.269C63.1019 69.302 62.6549 69.6196 62.2289 69.2421C62.092 69.5296 62.1399 69.7694 62.1401 70.0039C62.1408 70.9011 62.0256 71.7887 61.7196 72.6268C61.4918 73.251 61.2305 73.8751 60.7542 74.3805C60.4493 74.7039 60.2527 75.1234 59.8723 75.3866C59.7986 75.4376 59.7347 75.5393 59.7164 75.628C59.5542 76.4141 58.9427 76.8441 58.3154 77.128C57.4165 77.5348 56.4564 77.8433 55.4295 77.7383C55.2439 77.7193 55.0611 77.7547 54.9022 77.8521C54.5757 78.0523 54.2179 78.1016 53.8492 78.0735C53.2116 78.0249 52.5674 78.0605 51.9376 77.9049C51.5726 77.8148 51.1969 77.7682 50.8313 77.6801C50.3156 77.5558 49.754 77.465 49.3157 77.2204C48.6446 76.8459 48.0163 76.3531 47.5063 75.75C47.4067 75.6321 47.3296 75.4977 47.1852 75.4256C46.4009 75.034 45.9549 74.363 45.6127 73.5848C45.4238 73.1553 45.1099 72.7649 45.094 72.2829C45.0594 71.2355 44.6522 70.2209 44.8406 69.1535C44.8868 68.8915 44.7026 68.7338 44.4522 68.8181C44.23 68.8929 43.7829 68.7136 43.8377 69.1766C43.9821 70.3971 44.1856 71.6106 44.3353 72.8307C44.4337 73.6329 44.552 74.4388 44.3747 75.2502C44.1847 76.1196 43.8341 76.394 43.0506 76.2345C42.7186 76.1669 42.4917 75.9295 42.2776 75.6842C41.8578 75.2034 41.5876 74.6319 41.3 74.0711C41.2246 73.9238 41.1473 73.7801 40.9541 73.9241C40.7632 74.0664 40.4949 74.9693 40.5581 75.2077C40.6725 75.6394 40.8031 76.0531 41.0531 76.4411C41.322 76.8587 41.103 77.3193 40.6359 77.4819C39.8426 77.7582 39.1589 77.3993 38.8866 76.5639C38.4911 75.3507 38.2259 74.0959 38.9303 72.8754C39.0792 72.6175 38.9838 72.491 38.7029 72.4491C38.3919 72.4028 38.1734 72.5361 37.9566 72.7435C37.5819 73.1018 37.2598 73.057 37.0431 72.6301C36.6755 71.9064 36.9876 70.3887 38.1034 70.1128C38.477 70.0205 38.8524 70.0101 39.2319 70.0292C39.5071 70.043 39.6473 69.8955 39.5901 69.6432C39.4172 68.8815 39.253 68.1102 38.8576 67.4255C38.5962 66.9729 38.0979 66.8309 37.6126 67.023C35.6307 67.8076 35.0899 69.5789 35.3675 71.4558C35.5331 72.5748 36.0378 73.6212 36.5125 74.6528C37.0091 75.7319 37.611 76.7577 38.1651 77.8076C38.6847 78.7921 39.1907 79.7686 40.058 80.5069C40.3333 80.7414 40.622 80.9296 40.9781 80.9758C41.8039 81.083 42.6151 81.3153 43.4699 81.1471C43.9649 81.0496 44.364 80.6683 44.3341 80.1573C44.2995 79.5651 44.1119 79.0042 43.9702 78.434C43.8993 78.1485 43.8209 77.8606 43.8393 77.5653C43.8529 77.3473 43.9437 77.1461 44.189 77.0976C44.425 77.0509 44.5908 77.1669 44.7059 77.372C44.8873 77.6954 44.9688 78.0612 45.0259 78.4102C45.1882 79.4024 45.4778 80.3672 45.6005 81.3688C45.7122 82.2801 46.1057 83.0931 46.5562 83.9005C47.0645 84.8116 47.6295 85.6354 48.3997 86.3552C49.4108 87.3001 50.3419 88.3324 51.2844 89.3484C52.1259 90.2554 53.0481 91.07 54.0533 91.7819C54.8744 92.3634 55.7377 92.8871 56.5965 93.4133C57.9868 94.2651 59.4286 94.9527 61.136 94.6997C62.2166 94.5396 63.295 94.8535 64.3816 94.703C65.5033 94.5476 66.6558 94.6651 67.7625 94.3597C68.5972 94.1294 69.4539 93.9525 70.2369 93.5745C70.8143 93.2957 71.3373 92.9098 71.8839 92.5732C72.656 92.0978 73.4528 91.6034 74.0732 90.9578C74.667 90.3399 75.3011 89.7745 75.9626 89.1467ZM63.7768 67.6791C64.3446 67.7103 64.9253 67.7031 65.2789 68.2362C65.4671 68.1317 65.4653 67.9935 65.4815 67.8738C65.5802 67.1442 65.923 66.5156 66.3194 65.9192C66.5086 65.6346 66.5469 65.3678 66.4694 65.0501C66.3755 64.6649 66.7133 64.3743 67.1031 64.4924C67.2736 64.544 67.413 64.6889 67.6317 64.6644C67.8092 64.3273 67.9799 64.0184 68.447 63.9263C69.7366 63.672 71.0464 63.7567 72.3421 63.621C73.8783 63.4602 75.424 63.5047 76.9656 63.5354C77.5919 63.5479 78.2298 63.5552 78.8403 63.7193C79.0846 63.785 79.2954 63.8994 79.5626 63.7947C79.7951 63.7035 79.9659 63.875 80.012 64.0651C80.084 64.3621 80.2922 64.4572 80.5304 64.5552C81.0107 64.7531 81.4839 64.9606 81.8458 65.3597C81.9753 65.5025 82.1437 65.6166 82.3706 65.5524C82.4371 65.3669 82.3997 65.1855 82.347 65.0149C82.0999 64.2141 81.8622 63.41 81.4939 62.6519C81.1942 62.0348 81.3657 61.5508 81.9762 61.2137C82.0979 61.1465 82.2389 61.0787 82.3143 60.9714C82.444 60.7866 82.4572 60.5561 82.2735 60.3996C82.0669 60.2236 81.9891 60.4538 81.8912 60.5746C81.728 60.7762 81.5102 60.9048 81.291 61.0291C80.4646 61.4978 79.9624 61.2127 79.9525 60.2696C79.9474 59.7866 79.9516 59.3035 79.9516 58.7999C79.8366 58.8224 79.7854 58.8167 79.7601 58.8396C79.1685 59.3763 78.4732 59.4224 77.7246 59.3116C76.7793 59.1716 76.075 58.5948 75.3535 58.0513C75.0617 57.8315 75.0415 57.5393 75.2885 57.2434C75.386 57.1265 75.4719 56.9954 75.54 56.8593C75.9401 56.0586 75.8704 55.2034 75.8173 54.3515C75.8102 54.2379 75.786 54.1254 75.6255 54.1046C75.5045 54.1583 75.4842 54.2906 75.4236 54.398C75.0755 55.0154 74.8774 55.7466 74.2797 56.1828C73.6542 56.6393 73.0321 57.1664 72.1522 56.9984C71.9309 56.9561 71.7449 56.8843 71.6524 56.6676C71.5586 56.448 71.6866 56.2878 71.8225 56.1423C72.774 55.1229 73.002 53.8939 72.868 52.5587C72.8588 52.4668 72.8203 52.3979 72.7106 52.393C72.5671 52.4352 72.5496 52.5754 72.5047 52.6869C72.2555 53.3051 71.8527 53.8325 71.4803 54.3727C71.0216 55.038 70.1686 55.1517 69.1504 54.7426C68.7294 54.5734 68.6577 54.388 68.8856 53.9985C68.9986 53.8055 69.1168 53.6058 69.273 53.4494C70.2802 52.4406 70.3802 51.1751 70.3058 49.8607C70.2798 49.3997 70.2049 48.9412 70.1851 48.4802C70.1331 47.2694 69.9866 47.0469 68.8427 46.6256C68.5602 46.5216 68.2943 46.3441 67.958 46.4229C67.4392 46.5446 66.8805 47.1792 66.7779 47.8172C66.7424 48.0381 66.6934 48.2259 66.4434 48.2945C66.178 48.3673 66.0171 48.2374 65.8803 48.0373C65.6193 47.6554 65.3551 47.2757 65.0935 46.8942C64.928 46.6528 64.7491 46.576 64.5151 46.819C64.3873 46.9518 64.2264 47.0757 64.0372 47.0519C63.4964 46.9837 63.1203 47.2686 62.7281 47.5761C62.3145 47.9004 62.2609 48.2992 62.339 48.7726C62.4142 49.2286 62.5243 49.6749 62.6278 50.1245C62.954 51.5414 63.7147 52.6907 64.7552 53.6714C64.9564 53.8609 65.1212 54.0341 64.9753 54.3169C64.8327 54.5934 64.5982 54.5943 64.3244 54.5274C63.4228 54.3071 62.7267 53.7687 62.0806 53.1372C61.9151 52.9754 61.7535 52.6206 61.493 52.8055C61.2822 52.9551 61.4692 53.2765 61.5517 53.5023C61.7629 54.0802 62.0203 54.6418 62.2192 55.2236C62.3354 55.5634 62.4503 55.8239 62.8623 55.8964C63.1912 55.9543 63.2439 56.2637 63.2415 56.5639C63.2401 56.7452 63.2151 56.9443 63.0032 56.9407C62.6751 56.9349 62.4637 57.1516 62.2026 57.274C61.5829 57.5647 61.0456 58.0721 60.3532 58.1551C59.1579 58.2983 57.979 58.1527 56.8637 57.667C56.0307 57.3042 55.4174 56.6721 54.8706 55.968C54.7939 55.8692 54.732 55.7318 54.576 55.7994C54.4504 55.8539 54.488 55.985 54.4756 56.0957C54.4349 56.4568 54.5934 56.7819 54.6444 57.1258C54.7334 57.7259 54.9435 58.2578 55.4678 58.6151C55.6444 58.7354 55.709 58.8991 55.7384 59.1088C55.8126 59.6366 55.4142 59.7443 55.0729 59.9385C54.0539 60.5184 52.4506 60.1351 51.8429 59.1478C51.4675 58.5376 51.1557 57.9003 50.99 57.1978C50.957 57.0577 50.9624 56.8839 50.7691 56.8289C50.484 57.0406 50.6929 57.3062 50.708 57.5294C50.7581 58.2678 50.8005 59.0174 51.04 59.7215C51.2759 60.415 51.6211 61.0573 52.2244 61.5248C52.412 61.6703 52.5084 61.891 52.4078 62.1253C52.3141 62.3438 52.0928 62.3117 51.8953 62.3259C51.6176 62.3459 51.3775 62.2078 51.1172 62.1699C50.0391 62.013 49.2134 61.4114 48.4621 60.6814C48.1967 60.4235 47.9619 60.134 47.7188 59.8652C47.6532 59.9101 47.6164 59.9211 47.61 59.9417C47.3461 60.784 47.1897 61.6141 47.7295 62.4272C47.9696 62.7888 47.8379 63.1688 47.4796 63.2269C47.1167 63.2858 46.7342 63.2911 46.4223 63.064C45.97 62.7348 45.4713 62.4683 45.0667 62.0732C44.991 61.9992 44.9185 61.8951 44.7295 61.9589C44.5888 63.4696 45.058 65.015 44.5823 66.5362C45.1104 66.5338 45.532 66.1939 45.5936 65.7632C45.611 65.6417 45.6449 65.5274 45.7532 65.4864C46.3359 65.2661 46.8517 64.8342 47.5238 64.8945C47.8321 64.9222 48.0366 64.8035 48.1719 64.5364C48.3125 64.2587 48.5052 64.0177 48.7138 63.7895C48.9852 63.4925 49.276 63.4649 49.5847 63.7274C49.7382 63.8579 49.9059 63.8821 50.091 63.8892C50.9852 63.9231 51.875 64.0108 52.763 64.1184C53.0407 64.152 53.2937 64.2882 53.5844 64.2824C54.9882 64.2541 56.3758 64.3918 57.7514 64.6815C58.0247 64.739 58.328 64.7793 58.6023 64.5806C59.0669 64.2443 59.3002 64.3224 59.502 64.8718C59.5809 65.0867 59.665 65.2349 59.922 65.1131C60.1288 65.0151 60.2643 65.1498 60.4122 65.2578C60.592 65.389 60.729 65.5651 60.9423 65.6654C61.5407 65.9467 61.822 66.443 61.8837 67.0976C61.9363 67.6563 62.1541 68.191 62.1375 68.7765C62.3218 68.6106 62.3013 68.378 62.432 68.1942C62.7607 67.7319 63.2377 67.7465 63.7768 67.6791ZM56.4296 67.0369C56.1654 67.0094 55.9014 66.961 55.6369 66.9582C54.6566 66.9478 53.6761 66.9519 52.6958 66.9519C52.5121 66.9519 52.3268 66.9601 52.1804 66.8214C51.979 66.6307 51.7307 66.618 51.4733 66.6175C50.6176 66.6159 49.7617 66.6164 48.9062 66.6004C48.3263 66.5896 48.2897 66.6163 48.1376 67.1852C48.0715 67.4322 48.0346 67.7617 47.6903 67.764C47.3657 67.7661 47.3815 67.4598 47.3329 67.2325C47.327 67.2052 47.3147 67.1794 47.3072 67.1524C47.2548 66.9642 47.161 66.7943 46.9446 66.8069C46.7388 66.819 46.6139 66.9821 46.5963 67.1748C46.5585 67.5883 46.3935 67.9953 46.527 68.4204C46.5704 68.5589 46.557 68.7093 46.4552 68.8191C46.2425 69.0485 46.3005 69.3173 46.3326 69.5776C46.3993 70.1181 46.5078 70.6545 46.5518 71.1964C46.7067 73.1055 47.7478 74.4247 49.3696 75.2872C50.554 75.9171 51.8389 76.2792 53.1917 76.4368C54.4329 76.5814 55.6099 76.3363 56.7106 75.8867C57.9587 75.3769 58.9205 74.514 59.6465 73.276C60.5215 71.7842 60.9103 70.2459 60.9154 68.5629C60.9169 68.0699 60.5599 67.549 60.105 67.4005C59.9119 67.3375 59.7611 67.2375 59.6061 67.1101C59.4317 66.9668 59.2359 66.7571 58.9772 66.8724C58.1703 67.2321 57.3397 67.1413 56.4296 67.0369ZM66.9281 69.6946C66.9447 70.5291 67.2421 71.2909 67.6158 72.0097C67.9294 72.613 68.1606 73.2747 68.6957 73.7512C69.8899 74.8143 71.4285 75.1672 72.8589 75.7002C73.9198 76.0955 75.0981 75.9738 76.2234 75.7797C76.5868 75.717 76.9513 75.6378 77.2483 75.3467C78.1942 74.4198 78.8862 73.3117 79.6049 72.2144C80.2408 71.2435 80.5884 70.1989 80.7514 69.0583C80.8311 68.5002 80.783 67.9422 80.8653 67.3853C80.9073 67.101 80.8492 66.7461 80.535 66.5131C80.3108 66.7749 80.089 66.9571 79.7538 66.6853C78.9312 66.0184 77.9314 66.0728 76.958 66.0322C76.8566 66.0279 76.7625 66.0706 76.6946 66.1466C76.4549 66.4152 76.1365 66.4393 75.8086 66.4457C74.3786 66.4735 72.9486 66.5034 71.5186 66.5329C71.4485 66.5343 71.3777 66.534 71.3085 66.5436C70.4706 66.6596 69.6429 66.6665 68.8233 66.3993C68.4795 66.2872 68.1325 66.2941 67.8841 66.643C67.7438 66.84 67.5558 66.9961 67.3267 67.0774C67.0382 67.1799 66.9206 67.3961 66.8573 67.6721C66.707 68.3275 66.723 68.9772 66.9281 69.6946ZM57.5124 30.1222C58.434 30.1324 59.3268 30.432 60.3243 30.4744C58.7764 28.739 54.296 29.0793 52.3504 30.2603C53.286 30.0991 54.1995 29.9983 55.1275 29.9958C55.9002 29.9937 56.6598 30.1656 57.5124 30.1222Z" fill="#001309"/>
<path d="M66.0036 89.5844C64.8069 89.3895 63.6873 89.0313 62.5531 88.7318C62.433 88.7001 62.2862 88.6558 62.1825 88.6961C61.737 88.8697 61.5705 88.5436 61.3955 88.2677C61.2015 87.9617 61.303 87.6431 61.459 87.3544C61.5492 87.1874 61.7138 87.1186 61.9182 87.1138C62.6845 87.0961 63.4232 87.2318 64.139 87.493C65.0585 87.8286 66.0294 88.0073 66.9226 88.4255C67.305 88.6045 67.5515 88.9381 67.4917 89.3459C67.4347 89.7345 67.115 89.7691 66.8172 89.7507C66.5551 89.7344 66.2973 89.6497 66.0036 89.5844Z" fill="#001309"/>
<path d="M66.6866 80.3264C66.001 80.7192 65.3192 81.0433 64.6032 81.2929C64.1174 81.4622 63.6817 81.3628 63.5172 81.0483C63.3433 80.716 63.4532 80.2531 63.8544 79.9774C64.5422 79.5048 65.3068 79.1927 66.15 79.1366C66.4859 79.1143 66.7439 79.2933 66.8863 79.6021C67.0126 79.876 66.9623 80.1206 66.6866 80.3264Z" fill="#001309"/>
<path d="M76.533 79.593C77.1145 80.0253 77.3183 80.6916 77.6987 81.2306C77.8402 81.4309 77.7491 81.7785 77.5171 81.9484C77.2594 82.1372 77.0336 81.9428 76.8549 81.7638C76.4269 81.335 76.1179 80.8142 75.8001 80.3051C75.6972 80.1402 75.7218 79.9204 75.8662 79.7544C76.0375 79.5576 76.2454 79.4719 76.533 79.593Z" fill="#001309"/>
<path d="M50.8482 81.3925C51.0737 81.7153 51.2833 82.0118 51.4825 82.3152C51.6219 82.5275 51.7312 82.7522 51.7051 83.0211C51.6847 83.2315 51.5879 83.3578 51.3689 83.3769C51.0413 83.4055 50.5601 83.0735 50.4862 82.745C50.4374 82.528 50.3179 82.3658 50.1695 82.2138C49.9614 82.0007 49.8063 81.7529 49.7099 81.4713C49.6626 81.3332 49.652 81.1919 49.7868 81.0895C49.9143 80.9927 50.0529 80.9263 50.2126 81.0158C50.4189 81.1314 50.6229 81.2512 50.8482 81.3925Z" fill="#001309"/>
<path d="M48.8794 81.6035C49.1585 81.8938 49.179 82.2573 49.2867 82.5845C49.351 82.7796 49.3078 82.9413 49.1197 83.0507C48.9468 83.1512 48.7773 83.1688 48.6133 83.037C48.3492 82.8249 48.1203 82.5842 47.9971 82.26C47.9032 82.0128 47.7959 81.7697 47.7188 81.5173C47.6355 81.2442 47.6721 80.9685 47.9232 80.8063C48.1759 80.6429 48.3243 80.8869 48.4886 81.0266C48.664 81.1755 48.7616 81.3776 48.8794 81.6035Z" fill="#001309"/>
<path d="M78.5643 79.3302C78.9738 79.8688 79.3395 80.3935 79.3342 81.0812C79.3326 81.2988 79.272 81.4759 79.055 81.5454C78.8322 81.6167 78.6441 81.4989 78.5683 81.3135C78.3734 80.8369 78.0724 80.4018 77.9846 79.883C77.9104 79.4449 78.0779 79.2756 78.5643 79.3302Z" fill="#001309"/>
<path d="M51.3502 72.4594C50.998 71.8644 50.9802 71.1838 50.716 70.557C50.1254 70.7681 49.7297 71.1563 49.375 71.5938C49.2316 71.7706 49.1112 71.9874 48.8345 71.871C48.5807 71.7642 48.4383 71.5668 48.4478 71.278C48.4511 71.1799 48.4604 71.0793 48.4445 70.9836C48.3296 70.2964 48.6847 69.8838 49.2309 69.5478C50.6444 68.6781 52.1637 68.2644 53.8301 68.3499C54.4869 68.3835 55.1474 68.3747 55.8036 68.4325C56.6647 68.5082 57.5181 68.6249 58.3117 69.006C59.2087 69.4367 59.3147 70.3854 59.1466 71.1693C59.0956 71.4071 58.905 71.4733 58.6869 71.3622C58.4447 71.2388 58.2507 71.0646 58.1513 70.7965C58.041 70.4986 57.8281 70.3172 57.4866 70.2668C57.3688 70.4573 57.4163 70.656 57.4522 70.8375C57.6505 71.8404 57.3718 72.7875 56.8198 73.554C56.2813 74.3019 55.3806 74.6304 54.4267 74.5243C53.07 74.3735 52.0513 73.6685 51.3502 72.4594Z" fill="#001309"/>
<path d="M69.8781 68.9489C70.2192 68.7023 70.5805 68.5412 70.8623 68.2569C70.9748 68.1434 71.1466 68.0545 71.3044 68.0254C72.5741 67.7917 73.8292 67.3524 75.1479 67.7158C75.2272 67.7377 75.317 67.7464 75.3979 67.7343C76.2147 67.6115 76.9892 67.7095 77.7941 67.9421C78.2588 68.0764 78.677 68.2212 79.0805 68.4768C79.8093 68.9384 80.0506 69.6415 80.0867 70.441C80.1053 70.851 79.8604 71.0725 79.4726 71.0768C78.9772 71.0823 78.8083 70.9273 78.7863 70.4473C78.7694 70.0785 77.8906 69.334 77.5253 69.3808C77.2407 69.4173 77.2917 69.6413 77.3319 69.8021C77.4863 70.4201 77.367 70.9884 77.0985 71.5497C76.8723 72.0227 76.5258 72.422 76.0928 72.6497C74.3498 73.566 72.8254 73.3522 71.3807 71.775C71.018 71.3791 70.9237 70.8955 70.8701 70.3921C70.8255 69.9724 70.7439 69.9412 70.3767 70.125C69.8953 70.3658 69.5938 70.7967 69.2271 71.1571C69.0166 71.3639 68.8096 71.4921 68.5217 71.352C68.2489 71.2193 68.297 70.9808 68.3083 70.7334C68.3405 70.0321 68.9094 69.7259 69.3272 69.3124C69.4735 69.1676 69.6755 69.0791 69.8781 68.9489Z" fill="#001309"/>
</svg>
