<svg width="700" height="700" viewBox="0 0 700 700" fill="none" xmlns="http://www.w3.org/2000/svg">
<rect width="700" height="700" rx="115" fill="white"/>
<path d="M318.78 144.128C338.649 124.064 357.826 135.626 365.036 144.015C365.102 144.092 365.166 144.157 365.242 144.223C377.645 155.018 396.608 172.25 418.595 193.375L418.632 194.675C418.672 196.091 417.278 197.105 415.943 196.631L349.061 172.881C347.167 172.208 345.563 174.419 346.79 176.011L390.106 232.209C390.971 233.331 390.439 234.971 389.081 235.372L321.009 255.453C319.081 256.022 319.082 258.753 321.01 259.319L389.101 279.335C390.46 279.735 390.994 281.375 390.13 282.498L346.867 338.737C345.642 340.33 347.248 342.539 349.141 341.865L416.001 318.051C417.335 317.576 418.73 318.588 418.691 320.004L416.762 390.924C416.708 392.933 419.305 393.776 420.44 392.118L460.528 333.569C461.328 332.4 463.052 332.4 463.853 333.567L503.997 392.078C505.134 393.735 507.73 392.89 507.674 390.881L505.676 319.962C505.637 318.547 507.031 317.533 508.365 318.007L540.303 329.348C544.405 330.804 548.019 333.487 550.318 337.184C589.526 400.231 518.853 429.116 474.433 436.128C473.545 436.268 472.873 436.969 472.754 437.859L471.124 450.09C471.013 450.921 471.428 451.734 472.166 452.131L495.549 464.723C496.454 465.21 497.571 464.945 498.186 464.122C505.709 454.054 525.128 435.449 551.433 430.512C552.13 430.381 552.824 430.609 553.272 431.159C577.231 460.553 601.26 562.745 518.301 567.354C500.711 568.331 457.914 550.734 438.432 521.732C437.597 520.489 435.703 520.525 434.875 521.773C398.62 576.417 364.546 545.321 349.99 519.665C349.154 518.192 346.937 518.291 346.187 519.81C321.364 570.086 286.951 545.83 271.029 525.196C270.202 524.124 268.57 524.11 267.727 525.17C244.796 553.979 219.788 560.628 209.95 560.3C166.151 558.629 91.5341 530.532 141.729 431.688C142.133 430.892 143.046 430.423 143.92 430.604C175.284 437.08 192.576 456.722 198.135 467.143C198.585 467.987 199.534 468.444 200.46 468.205C215.221 464.387 226.984 457.14 231.145 453.434C231.764 452.883 231.879 451.991 231.509 451.25L224.547 437.328C224.244 436.721 223.676 436.311 223.003 436.226C188.79 431.915 124.587 412.093 133.366 365.818C136.389 339.618 251.265 210.635 318.78 144.128Z" fill="black"/>
</svg>
