<svg width="54" height="64" viewBox="0 0 54 64" fill="none" xmlns="http://www.w3.org/2000/svg">
  <path
  d="M27.1142 0.940762C28.1766 1.35881 29.1651 1.84356 30.0168 2.578C30.3205 2.83992 30.6276 3.09427 30.8426 3.43655C31.0507 3.76776 31.3511 3.86079 31.7076 3.77138C32.6064 3.54599 33.5273 3.49227 34.4421 3.38274C35.1436 3.29875 35.8413 3.15195 36.5489 3.18335C37.4328 3.22256 38.3158 3.2804 39.1988 3.36215C40.0484 3.44082 40.8797 3.57055 41.6969 3.78456C42.7841 4.0693 43.8194 4.49036 44.6506 5.28066C45.3051 5.9029 46.0693 6.38523 46.7364 6.9929C48.4236 8.52963 49.8554 10.2401 50.7854 12.356C51.3535 13.6486 51.6669 15.0045 52.0125 16.3581C52.3463 17.6657 52.5732 18.9919 52.7437 20.3291C52.853 21.1854 52.8412 22.0485 52.8927 22.9079C52.9559 23.9632 52.8493 25.0153 52.8664 26.0687C52.8846 27.1915 52.6645 28.2953 52.6147 29.4097C52.5709 30.3902 52.2998 31.3294 52.2081 32.2984C52.1807 32.5883 52.0952 32.8745 52.0549 33.1672C51.9987 33.5756 51.7946 33.8664 51.3327 33.864C50.9489 33.8621 50.5647 34.1305 50.1782 33.8496C50.0835 33.7808 49.9728 33.845 49.9244 33.9517C49.8467 34.1234 49.7451 34.2937 49.8056 34.4939C49.9475 34.585 50.0858 34.5437 50.2238 34.5174C51.4643 34.2809 53.1662 35.1073 53.6845 36.2498C53.9131 36.7537 53.8859 37.3307 53.9234 37.8779C53.977 38.6602 53.9482 39.4458 53.9918 40.2308C54.0436 41.1623 53.8454 42.065 53.5002 42.9384C52.9467 44.339 52.1418 45.5816 51.239 46.7789C50.886 47.2472 50.5564 47.7384 50.1846 48.1934C49.3691 49.1915 48.3437 49.8994 47.1166 50.3009C46.8566 50.386 46.6085 50.4811 46.3932 50.6498C46.2889 50.7316 46.1721 50.7823 46.0447 50.8074C45.4829 50.918 45.0653 51.2496 44.8305 51.7459C44.2565 52.9597 43.396 53.9663 42.5373 54.9685C41.9111 55.6995 41.3191 56.46 40.6356 57.146C40.0085 57.7755 39.3608 58.3818 38.6784 58.9434C38.2449 59.3001 38.0124 59.8265 37.5363 60.1342C36.7936 60.6142 36.1534 61.2417 35.3442 61.6306C35.0226 61.7852 34.7392 62.0184 34.4356 62.2114C34.284 62.3078 34.1367 62.4277 33.9696 62.4801C32.9589 62.7971 31.987 63.2231 30.9147 63.3647C30.221 63.4563 29.5338 63.4809 28.8409 63.4994C28.4923 63.5087 28.1537 63.5861 27.8112 63.6428C27.2252 63.7398 26.6353 63.6335 26.0466 63.6392C25.5851 63.6437 25.1242 63.6367 24.6658 63.6949C24.3657 63.733 24.0892 63.6471 23.7981 63.5935C22.3188 63.3207 21.0613 62.5774 19.8346 61.7737C19.0401 61.2531 18.2098 60.7766 17.5025 60.134C16.8661 59.5557 16.2584 58.9458 15.6277 58.3611C14.6558 57.4603 13.8828 56.3678 12.8488 55.5244C12.174 54.9739 11.697 54.2473 11.2547 53.5043C11.0574 53.1728 10.8868 52.8255 10.6909 52.4932C10.2142 51.685 9.44637 51.4531 8.57018 51.4211C8.24534 51.4092 7.94409 51.2591 7.6223 51.2001C7.0959 51.1036 6.55866 51.0493 6.0686 50.7786C5.25815 50.3309 4.60893 49.7023 4.15258 48.9264C3.44308 47.7199 2.8117 46.4666 2.17354 45.2196C1.7577 44.407 1.4322 43.5497 1.08553 42.7071C0.738422 41.8636 0.538485 40.9289 0.687942 40.0274C0.927187 38.5842 1.51136 37.304 2.98716 36.674C3.24672 36.5632 3.4774 36.3881 3.76118 36.3308C4.06196 36.2701 4.34131 36.3304 4.62038 36.4481C4.74751 36.5018 4.9035 36.5242 5.01571 36.3966C5.08155 36.3218 5.08012 36.2263 5.01745 36.1473C4.90761 36.0089 4.76953 36.0584 4.62851 36.092C4.39089 36.1488 3.76646 35.8124 3.6048 35.5556C3.37734 35.1942 3.08615 34.8954 2.72669 34.6617C2.64267 34.6071 2.56181 34.5345 2.50565 34.4523C2.16479 33.9536 1.79907 33.468 1.50245 32.9436C0.886727 31.8551 0.401578 30.7 0.185676 29.4678C0.00459561 28.4343 -0.073185 27.3867 0.0866682 26.3244C0.188837 25.6454 0.0951565 24.939 0.162579 24.252C0.20902 23.7789 0.32759 23.3003 0.467207 22.8465C0.803289 21.7542 1.15796 20.662 1.59812 19.6086C2.43251 17.6117 3.44045 15.7082 4.73598 13.9571C5.72173 12.6247 6.63052 11.2354 7.7492 10.0049C8.58114 9.08987 9.49608 8.26223 10.4389 7.46435C10.4586 7.44772 10.4771 7.42903 10.4989 7.41576C12.0786 6.45336 13.4664 5.19862 15.1337 4.37049C15.4533 4.21173 15.785 4.07722 16.1208 3.92721C15.1428 3.09564 15.743 1.90141 16.7154 1.4701C18.0303 0.886923 19.419 0.5858 20.8468 0.429229C22.4008 0.25882 23.9518 0.229102 25.4976 0.470531C26.0411 0.555415 26.5742 0.716536 27.1142 0.940762ZM38.8799 57.5846C39.715 56.8032 40.4869 55.9655 41.2301 55.0941C42.3475 53.784 43.4919 52.5024 44.203 50.9057C44.7867 49.5949 44.8542 48.1979 44.9027 46.7991C44.9267 46.1054 44.9214 45.4118 45.0741 44.7289C45.1273 44.4911 45.27 44.4032 45.4937 44.4442C45.7164 44.485 45.9155 44.6219 45.8779 44.8525C45.7737 45.4914 45.7902 46.1324 45.7784 46.7735C45.7687 47.3005 45.7523 47.828 45.7666 48.3545C45.7768 48.7325 46.3513 49.3729 46.7236 49.4643C46.8271 49.4896 46.9279 49.4698 47.0253 49.4289C48.1188 48.9705 49.0078 48.2375 49.731 47.317C50.3181 46.5696 50.8523 45.7796 51.3935 44.9972C52.2436 43.7681 52.8979 42.4456 53.0515 40.9404C53.1715 39.764 53.0807 38.5812 52.9555 37.4073C52.9316 37.1837 53.0338 36.9447 52.8829 36.7314C52.5008 36.1915 52.1359 35.6331 51.3491 35.6837C51.2614 35.6893 51.1704 35.6626 51.0825 35.6437C50.4241 35.5018 49.8128 35.6838 49.2756 36.0221C48.8917 36.2639 48.7213 36.7421 48.4759 37.1175C48.1331 37.6415 48.0455 38.292 47.8889 38.9009C47.8549 39.0331 47.7645 39.1943 47.9036 39.2953C48.0476 39.4 48.1906 39.2946 48.3279 39.214C48.8674 38.8973 49.3846 38.5457 50.0349 38.455C50.4235 38.4008 50.7314 38.5028 50.9716 38.7697C51.1885 39.0109 51.1024 39.3049 50.9696 39.5664C50.6881 40.1204 50.2868 40.5819 49.8093 41.0219C50.0084 41.3338 50.3021 41.6064 50.3084 42.0257C50.3258 43.1817 49.9426 44.223 49.3842 45.2052C49.214 45.5046 48.9137 45.6742 48.5302 45.573C47.589 45.3248 47.4701 45.0786 47.8591 44.1697C47.8894 44.0987 47.9117 44.0231 47.9503 43.957C48.3065 43.3458 48.0177 42.8138 47.734 42.2905C47.6434 42.1235 47.4978 42.0537 47.3464 42.2715C47.2078 42.471 47.0381 42.6456 46.9098 42.857C46.7032 43.1974 46.4294 43.4847 45.9869 43.4452C45.6158 43.4121 44.9521 42.7929 44.8697 42.4633C44.66 41.6235 44.7655 40.7819 44.8322 39.9382C44.8551 39.6497 44.9613 39.344 44.74 38.9778C44.5889 39.5877 44.4543 40.1145 44.3288 40.6435C44.2482 40.9837 44.2005 41.3363 43.789 41.4602C43.6604 41.4989 43.6502 41.6365 43.6177 41.7454C43.4307 42.3719 43.2435 42.9984 43.0629 43.6268C43.0219 43.7697 42.9662 43.8904 42.8282 43.9615C42.352 44.2071 42.0635 44.6401 41.7829 45.0641C41.3668 45.6931 40.7732 46.0737 40.1032 46.3555C39.6844 46.5316 39.1964 46.4534 38.787 46.6199C37.9938 46.9426 37.2136 47.0294 36.3878 46.7821C35.9621 46.6546 35.5239 46.5443 35.0838 46.4981C34.7845 46.4667 34.4944 46.4423 34.2312 46.298C33.4906 45.892 32.7042 45.5641 32.0624 44.9904C31.4007 44.3989 30.7311 43.8339 30.3578 42.9809C29.9746 42.1054 29.761 41.1766 29.4183 40.2892C29.2666 39.8965 29.1977 39.5298 28.6673 39.5805C28.6116 39.5859 28.5525 39.5236 28.4912 39.507C28.1614 39.4174 27.8501 39.321 27.4813 39.3489C27.0815 39.3791 26.6714 39.6705 26.2806 39.3242C26.155 39.5879 26.199 39.8079 26.1991 40.0231C26.1998 40.8462 26.0941 41.6604 25.8134 42.4293C25.6044 43.002 25.3646 43.5745 24.9277 44.0381C24.648 44.3348 24.4676 44.7197 24.1187 44.9612C24.0511 45.0079 23.9924 45.1013 23.9756 45.1826C23.8268 45.9038 23.2658 46.2983 22.6904 46.5587C21.8657 46.9319 20.9849 47.215 20.0428 47.1185C19.8725 47.1011 19.7048 47.1336 19.5591 47.223C19.2596 47.4067 18.9313 47.4519 18.5931 47.4261C18.0082 47.3815 17.4171 47.4142 16.8394 47.2715C16.5045 47.1887 16.1598 47.146 15.8244 47.0652C15.3513 46.9512 14.8361 46.8678 14.434 46.6435C13.8184 46.2999 13.242 45.8478 12.7741 45.2945C12.6827 45.1864 12.612 45.0631 12.4796 44.997C11.76 44.6376 11.3509 44.0221 11.0369 43.3082C10.8636 42.9141 10.5756 42.556 10.561 42.1138C10.5293 41.1529 10.1557 40.2221 10.3286 39.2429C10.371 39.0025 10.2019 38.8579 9.97224 38.9352C9.76845 39.0038 9.35827 38.8394 9.40853 39.2641C9.54104 40.3838 9.72771 41.4971 9.86503 42.6163C9.95532 43.3523 10.0638 44.0916 9.90114 44.836C9.72688 45.6336 9.40526 45.8853 8.68649 45.739C8.38187 45.677 8.17374 45.4591 7.97734 45.2342C7.5922 44.7931 7.34429 44.2688 7.08049 43.7543C7.01126 43.6192 6.94036 43.4873 6.76315 43.6194C6.588 43.75 6.34184 44.5783 6.39983 44.797C6.5048 45.193 6.6246 45.5726 6.85392 45.9286C7.10067 46.3116 6.89971 46.7342 6.47121 46.8834C5.74342 47.1369 5.11622 46.8076 4.86639 46.0412C4.5036 44.9282 4.26026 43.777 4.90652 42.6574C5.04307 42.4208 4.95561 42.3047 4.69792 42.2663C4.41253 42.2238 4.21213 42.3461 4.0132 42.5364C3.66943 42.8651 3.37399 42.8239 3.17515 42.4324C2.83796 41.7684 3.12428 40.3761 4.14786 40.123C4.4906 40.0383 4.83502 40.0287 5.18314 40.0463C5.43567 40.059 5.56429 39.9236 5.51176 39.6921C5.35317 38.9933 5.20251 38.2858 4.83977 37.6576C4.60001 37.2424 4.14289 37.1122 3.69767 37.2884C1.87944 38.0081 1.3833 39.6332 1.63803 41.3551C1.78989 42.3816 2.25291 43.3416 2.68845 44.288C3.14402 45.2779 3.69617 46.219 4.20449 47.1822C4.68116 48.0854 5.14538 48.9811 5.941 49.6585C6.1936 49.8736 6.45844 50.0463 6.78515 50.0887C7.54274 50.187 8.28695 50.4001 9.0711 50.2458C9.52519 50.1564 9.89139 49.8066 9.86396 49.3377C9.83218 48.7945 9.66011 48.2799 9.53012 47.7568C9.46503 47.4949 9.39316 47.2308 9.41001 46.9599C9.42245 46.7599 9.50577 46.5753 9.7308 46.5308C9.94735 46.488 10.0994 46.5944 10.205 46.7825C10.3715 47.0792 10.4462 47.4149 10.4986 47.735C10.6475 48.6452 10.9131 49.5304 11.0257 50.4492C11.1282 51.2853 11.4892 52.0311 11.9024 52.7718C12.3688 53.6076 12.8871 54.3634 13.5937 55.0237C14.5213 55.8906 15.3755 56.8376 16.2402 57.7697C17.0121 58.6017 17.8581 59.3491 18.7803 60.0021C19.5336 60.5356 20.3256 61.0161 21.1135 61.4988C22.3889 62.2803 23.7116 62.911 25.278 62.679C26.2693 62.5321 27.2586 62.82 28.2555 62.6819C29.2845 62.5394 30.3418 62.6472 31.3571 62.3671C32.1228 62.1557 32.9088 61.9935 33.6271 61.6467C34.1568 61.391 34.6366 61.0368 35.1381 60.7281C35.8464 60.292 36.5774 59.8384 37.1466 59.2461C37.6913 58.6793 38.273 58.1606 38.8799 57.5846ZM27.7007 37.8903C28.2215 37.9189 28.7542 37.9123 29.0786 38.4013C29.2513 38.3055 29.2496 38.1787 29.2645 38.0689C29.3551 37.3996 29.6696 36.8229 30.0332 36.2758C30.2068 36.0146 30.2419 35.7699 30.1708 35.4785C30.0847 35.1251 30.3946 34.8585 30.7522 34.9668C30.9086 35.0142 31.0365 35.1471 31.2371 35.1246C31.3999 34.8153 31.5566 34.532 31.985 34.4475C33.1682 34.2142 34.3697 34.2919 35.5584 34.1674C36.9677 34.0198 38.3858 34.0607 39.8 34.0889C40.3746 34.1003 40.9597 34.1071 41.5198 34.2576C41.7439 34.3178 41.9374 34.4228 42.1825 34.3267C42.3958 34.2431 42.5525 34.4004 42.5947 34.5748C42.6608 34.8472 42.8518 34.9345 43.0703 35.0245C43.511 35.2059 43.9451 35.3963 44.2771 35.7625C44.3959 35.8935 44.5504 35.9982 44.7585 35.9392C44.8196 35.7691 44.7852 35.6026 44.7369 35.4462C44.5102 34.7115 44.2921 33.9738 43.9543 33.2783C43.6793 32.7123 43.8366 32.2682 44.3968 31.9589C44.5084 31.8973 44.6377 31.8351 44.7069 31.7366C44.8259 31.5671 44.838 31.3556 44.6694 31.2121C44.4799 31.0506 44.4085 31.2618 44.3188 31.3726C44.169 31.5575 43.9692 31.6755 43.7681 31.7896C43.01 32.2195 42.5493 31.9581 42.5402 31.0928C42.5355 30.6497 42.5394 30.2065 42.5394 29.7446C42.4338 29.7652 42.3868 29.7599 42.3637 29.781C41.8209 30.2733 41.1831 30.3156 40.4963 30.2139C39.6291 30.0855 38.983 29.5564 38.3211 29.0577C38.0534 28.8561 38.0349 28.588 38.2614 28.3166C38.3509 28.2094 38.4297 28.0891 38.4921 27.9642C38.8592 27.2297 38.7953 26.4451 38.7466 25.6636C38.7401 25.5593 38.7179 25.4562 38.5707 25.4371C38.4596 25.4863 38.441 25.6077 38.3854 25.7062C38.066 26.2727 37.8843 26.9435 37.336 27.3436C36.7622 27.7624 36.1915 28.246 35.3842 28.0918C35.1812 28.053 35.0106 27.9872 34.9257 27.7884C34.8397 27.5869 34.9571 27.44 35.0817 27.3064C35.9546 26.3712 36.1638 25.2437 36.0409 24.0189C36.0324 23.9346 35.9971 23.8713 35.8965 23.8668C35.7648 23.9056 35.7488 24.0342 35.7076 24.1364C35.479 24.7036 35.1095 25.1874 34.7678 25.683C34.347 26.2934 33.5645 26.3976 32.6304 26.0224C32.2441 25.8672 32.1784 25.697 32.3874 25.3397C32.4911 25.1626 32.5996 24.9794 32.7429 24.8359C33.6669 23.9105 33.7585 22.7496 33.6904 21.5437C33.6665 21.1208 33.5978 20.7002 33.5796 20.2772C33.5319 19.1665 33.3975 18.9623 32.3481 18.5758C32.0889 18.4804 31.8449 18.3176 31.5365 18.3899C31.0605 18.5015 30.5479 19.0837 30.4538 19.669C30.4213 19.8717 30.3764 20.044 30.147 20.1069C29.9035 20.1737 29.7559 20.0545 29.6304 19.8709C29.3909 19.5206 29.1486 19.1722 28.9086 18.8222C28.7567 18.6008 28.5926 18.5303 28.378 18.7533C28.2607 18.8751 28.1131 18.9888 27.9395 18.9669C27.4434 18.9043 27.0984 19.1658 26.7385 19.4479C26.3591 19.7453 26.3099 20.1112 26.3816 20.5455C26.4506 20.9638 26.5516 21.3733 26.6465 21.7858C26.9458 23.0856 27.6437 24.14 28.5982 25.0396C28.7828 25.2135 28.934 25.3724 28.8002 25.6318C28.6693 25.8855 28.4542 25.8863 28.203 25.825C27.3759 25.6229 26.7373 25.1289 26.1445 24.5495C25.9927 24.4012 25.8445 24.0756 25.6055 24.2453C25.4121 24.3825 25.5836 24.6774 25.6593 24.8845C25.8531 25.4147 26.0892 25.9299 26.2717 26.4636C26.3783 26.7754 26.4837 27.0143 26.8617 27.0809C27.1634 27.134 27.2117 27.4178 27.2096 27.6932C27.2083 27.8595 27.1853 28.0422 26.9909 28.0389C26.6899 28.0336 26.496 28.2323 26.2565 28.3447C25.688 28.6113 25.195 29.0769 24.5598 29.153C23.4633 29.2843 22.3817 29.1508 21.3586 28.7052C20.5944 28.3724 20.0317 27.7925 19.5301 27.1465C19.4598 27.0559 19.4029 26.9298 19.2599 26.9919C19.1446 27.0419 19.1791 27.1622 19.1677 27.2637C19.1304 27.595 19.2758 27.8932 19.3226 28.2087C19.4043 28.7592 19.597 29.2472 20.078 29.575C20.24 29.6854 20.2992 29.8356 20.3263 30.028C20.3943 30.5121 20.0288 30.6109 19.7157 30.7891C18.7809 31.3211 17.31 30.9695 16.7525 30.0636C16.4081 29.5039 16.122 28.9192 15.9701 28.2747C15.9398 28.1463 15.9448 27.9868 15.7674 27.9363C15.5059 28.1306 15.6975 28.3743 15.7113 28.579C15.7573 29.2564 15.7962 29.944 16.0159 30.59C16.2324 31.2262 16.549 31.8155 17.1024 32.2444C17.2746 32.3778 17.363 32.5803 17.2707 32.7953C17.1847 32.9957 16.9818 32.9662 16.8005 32.9793C16.5458 32.9976 16.3255 32.8709 16.0868 32.8362C15.0976 32.6922 14.3402 32.1403 13.6509 31.4706C13.4074 31.234 13.1921 30.9685 12.9691 30.7219C12.9089 30.763 12.8751 30.7731 12.8692 30.792C12.6271 31.5647 12.4837 32.3262 12.9789 33.0722C13.1991 33.404 13.0783 33.7526 12.7496 33.8059C12.4167 33.8599 12.0658 33.8647 11.7797 33.6564C11.3647 33.3544 10.9072 33.1099 10.536 32.7474C10.4665 32.6796 10.4 32.5841 10.2267 32.6426C10.0976 34.0285 10.528 35.4463 10.0917 36.8418C10.5761 36.8396 10.9628 36.5278 11.0194 36.1327C11.0353 36.0212 11.0664 35.9163 11.1658 35.8787C11.7003 35.6766 12.1735 35.2803 12.7902 35.3357C13.073 35.3611 13.2606 35.2522 13.3847 35.0072C13.5137 34.7524 13.6905 34.5313 13.8819 34.3219C14.1309 34.0495 14.3976 34.0241 14.6808 34.265C14.8216 34.3847 14.9755 34.407 15.1453 34.4134C15.9657 34.4446 16.7819 34.525 17.5965 34.6237C17.8514 34.6545 18.0835 34.7795 18.3502 34.7741C19.638 34.7482 20.911 34.8746 22.1729 35.1403C22.4237 35.1931 22.7019 35.23 22.9536 35.0478C23.3797 34.7392 23.5938 34.8109 23.7789 35.3149C23.8514 35.512 23.9285 35.648 24.1642 35.5363C24.354 35.4463 24.4783 35.57 24.614 35.669C24.7789 35.7893 24.9046 35.9509 25.1002 36.0429C25.6492 36.301 25.9073 36.7563 25.9639 37.3569C26.0122 37.8694 26.212 38.3599 26.1967 38.897C26.3658 38.7449 26.347 38.5314 26.4669 38.3629C26.7684 37.9387 27.206 37.9521 27.7007 37.8903ZM20.9603 37.3011C20.7179 37.2759 20.4757 37.2315 20.2331 37.2289C19.3338 37.2194 18.4343 37.2231 17.5349 37.2232C17.3664 37.2232 17.1964 37.2306 17.0621 37.1035C16.8774 36.9285 16.6496 36.9169 16.4134 36.9164C15.6284 36.9149 14.8432 36.9154 14.0583 36.9007C13.5263 36.8908 13.4928 36.9153 13.3532 37.4372C13.2926 37.6638 13.2588 37.9661 12.9429 37.9682C12.6451 37.9701 12.6596 37.6891 12.615 37.4806C12.6096 37.4556 12.5983 37.4319 12.5914 37.4071C12.5434 37.2344 12.4573 37.0785 12.2588 37.0901C12.07 37.1012 11.9554 37.2509 11.9393 37.4276C11.9046 37.807 11.7533 38.1804 11.8757 38.5704C11.9155 38.6974 11.9032 38.8354 11.8098 38.9362C11.6147 39.1466 11.6679 39.3932 11.6974 39.632C11.7585 40.1278 11.8581 40.6199 11.8984 41.1171C12.0406 42.8685 12.9957 44.0787 14.4835 44.8699C15.5701 45.4479 16.7488 45.78 17.9899 45.9246C19.1286 46.0573 20.2083 45.8324 21.2181 45.42C22.3632 44.9523 23.2455 44.1606 23.9115 43.0249C24.7142 41.6563 25.0709 40.245 25.0756 38.7011C25.0769 38.2488 24.7495 37.7709 24.3322 37.6347C24.155 37.5769 24.0167 37.4852 23.8745 37.3683C23.7144 37.2368 23.5348 37.0445 23.2975 37.1502C22.5572 37.4802 21.7952 37.3969 20.9603 37.3011ZM30.5916 39.7393C30.6069 40.5049 30.8797 41.2038 31.2225 41.8632C31.5102 42.4166 31.7223 43.0237 32.2133 43.4608C33.3087 44.4361 34.7203 44.7598 36.0326 45.2488C37.0058 45.6115 38.0868 45.4999 39.1191 45.3217C39.4525 45.2642 39.7869 45.1916 40.0594 44.9246C40.9272 44.0742 41.562 43.0576 42.2213 42.0509C42.8047 41.1603 43.1235 40.202 43.2731 39.1556C43.3462 38.6436 43.3021 38.1316 43.3776 37.6207C43.4161 37.3599 43.3628 37.0344 43.0745 36.8206C42.8689 37.0608 42.6654 37.2279 42.3579 36.9786C41.6033 36.3668 40.686 36.4167 39.7931 36.3794C39.7 36.3755 39.6137 36.4146 39.5514 36.4844C39.3315 36.7307 39.0394 36.7529 38.7386 36.7588C37.4267 36.7843 36.1148 36.8117 34.803 36.8388C34.7386 36.8401 34.6737 36.8398 34.6102 36.8486C33.8415 36.955 33.0822 36.9614 32.3303 36.7162C32.0149 36.6133 31.6966 36.6197 31.4687 36.9398C31.3399 37.1205 31.1675 37.2637 30.9573 37.3383C30.6927 37.4323 30.5848 37.6307 30.5267 37.8839C30.3888 38.4852 30.4035 39.0811 30.5916 39.7393ZM21.9536 3.43566C22.7991 3.44498 23.6182 3.71984 24.5333 3.75873C23.1132 2.16674 19.003 2.47885 17.2181 3.56232C18.0764 3.41449 18.9144 3.32196 19.7658 3.31969C20.4747 3.3178 21.1715 3.4755 21.9536 3.43566Z"
  fill="#181816" />
  <path
  d="M29.7428 57.9872C28.645 57.8083 27.6179 57.4797 26.5773 57.205C26.4672 57.1759 26.3325 57.1352 26.2374 57.1722C25.8286 57.3315 25.6759 57.0323 25.5154 56.7792C25.3373 56.4985 25.4306 56.2062 25.5736 55.9414C25.6564 55.7881 25.8074 55.725 25.9949 55.7207C26.6979 55.7044 27.3756 55.8288 28.0322 56.0685C28.8758 56.3764 29.7665 56.5403 30.5859 56.924C30.9368 57.0882 31.1629 57.3942 31.108 57.7683C31.0558 58.1249 30.7624 58.1566 30.4892 58.1397C30.2488 58.1247 30.0123 58.047 29.7428 57.9872Z"
  fill="#181816" />
  <path
  d="M30.3701 49.4941C29.7412 49.8544 29.1157 50.1518 28.4588 50.3807C28.0132 50.536 27.6135 50.4449 27.4625 50.1564C27.303 49.8515 27.4038 49.4268 27.7718 49.1739C28.4029 48.7403 29.1043 48.454 29.8779 48.4026C30.186 48.3821 30.4227 48.5463 30.5534 48.8296C30.6692 49.0808 30.6231 49.3053 30.3701 49.4941Z"
  fill="#181816" />
  <path
  d="M39.4031 48.8203C39.9365 49.217 40.1235 49.8282 40.4725 50.3226C40.6023 50.5064 40.5187 50.8253 40.3059 50.9812C40.0694 51.1544 39.8623 50.976 39.6984 50.8118C39.3057 50.4185 39.0223 49.9407 38.7307 49.4736C38.6363 49.3223 38.6589 49.1207 38.7914 48.9684C38.9485 48.7878 39.1393 48.7092 39.4031 48.8203Z"
  fill="#181816" />
  <path
  d="M15.8391 50.4712C16.046 50.7673 16.2383 51.0393 16.4211 51.3177C16.549 51.5124 16.6493 51.7186 16.6253 51.9652C16.6066 52.1583 16.5178 52.2742 16.3168 52.2917C16.0163 52.3179 15.5749 52.0134 15.5071 51.712C15.4623 51.5129 15.3527 51.3641 15.2166 51.2247C15.0256 51.0291 14.8833 50.8018 14.7949 50.5435C14.7515 50.4167 14.7418 50.2871 14.8655 50.1932C14.9824 50.1044 15.1095 50.0435 15.256 50.1256C15.4453 50.2316 15.6324 50.3416 15.8391 50.4712Z"
  fill="#181816" />
  <path
  d="M14.0332 50.6652C14.2892 50.9316 14.308 51.2651 14.4068 51.5652C14.4658 51.7442 14.4262 51.8926 14.2536 51.9929C14.095 52.0851 13.9395 52.1012 13.789 51.9803C13.5468 51.7858 13.3368 51.5649 13.2237 51.2675C13.1375 51.0407 13.0391 50.8177 12.9685 50.5862C12.892 50.3356 12.9256 50.0827 13.1559 49.9339C13.3877 49.784 13.5239 50.0079 13.6747 50.136C13.8356 50.2726 13.9251 50.458 14.0332 50.6652Z"
  fill="#181816" />
  <path
  d="M41.267 48.5794C41.6426 49.0734 41.9782 49.5548 41.9733 50.1858C41.9718 50.3854 41.9162 50.5479 41.7171 50.6116C41.5127 50.677 41.3402 50.5689 41.2707 50.3989C41.0918 49.9616 40.8157 49.5625 40.7351 49.0865C40.6671 48.6846 40.8207 48.5293 41.267 48.5794Z"
  fill="#181816" />
  <path
  d="M16.3006 42.2756C15.9775 41.7296 15.9611 41.1053 15.7187 40.5303C15.1769 40.724 14.8139 41.0801 14.4885 41.4814C14.357 41.6436 14.2465 41.8425 13.9927 41.7357C13.7598 41.6378 13.6291 41.4567 13.6379 41.1917C13.6409 41.1017 13.6495 41.0094 13.6348 40.9217C13.5294 40.2912 13.8552 39.9127 14.3563 39.6044C15.653 38.8066 17.0468 38.4271 18.5756 38.5054C19.1781 38.5363 19.7841 38.5283 20.386 38.5812C21.176 38.6507 21.959 38.7577 22.687 39.1074C23.5099 39.5025 23.6071 40.3729 23.453 41.092C23.4062 41.3102 23.2313 41.3709 23.0313 41.269C22.809 41.1557 22.631 40.9959 22.5399 40.75C22.4386 40.4767 22.2433 40.3103 21.9301 40.264C21.822 40.4388 21.8656 40.6211 21.8985 40.7876C22.0805 41.7077 21.8248 42.5765 21.3184 43.2797C20.8243 43.9659 19.9981 44.2672 19.1229 44.1699C17.8783 44.0315 16.9438 43.3848 16.3006 42.2756Z"
  fill="#181816" />
  <path
  d="M33.2981 39.0558C33.6111 38.8296 33.9424 38.6818 34.201 38.421C34.3043 38.3168 34.4618 38.2353 34.6066 38.2086C35.7714 37.9942 36.9228 37.5912 38.1326 37.9246C38.2054 37.9447 38.2878 37.9527 38.362 37.9415C39.1113 37.8289 39.8218 37.9188 40.5602 38.1322C40.9865 38.2553 41.3702 38.3883 41.7403 38.6227C42.409 39.0462 42.6303 39.6912 42.6635 40.4247C42.6805 40.8008 42.4558 41.004 42.1001 41.0079C41.6456 41.0129 41.4907 40.8708 41.4705 40.4305C41.455 40.0921 40.6488 39.4091 40.3137 39.452C40.0525 39.4855 40.0994 39.691 40.1362 39.8386C40.2778 40.4055 40.1684 40.9268 39.9221 41.4418C39.7145 41.8757 39.3967 42.2421 38.9995 42.4509C37.4005 43.2915 36.002 43.0953 34.6765 41.6484C34.3439 41.2853 34.2573 40.8416 34.2082 40.3798C34.1672 39.9947 34.0924 39.9662 33.7556 40.1347C33.3139 40.3557 33.0373 40.751 32.7008 41.0816C32.5078 41.2713 32.3179 41.3889 32.0537 41.2604C31.8035 41.1387 31.8476 40.9199 31.858 40.6929C31.8875 40.0495 32.4094 39.7686 32.7927 39.3893C32.9269 39.2565 33.1123 39.1753 33.2981 39.0558Z"
  fill="#181816" />
</svg>
